<mxfile host="app.diagrams.net" modified="2024-07-08T10:23:58.321Z" agent="Mozilla/5.0 (Windows NT 10.0; Win64; x64) AppleWebKit/537.36 (KHTML, like Gecko) Chrome/126.0.0.0 Safari/537.36" version="24.6.4" etag="lQw8iDYVHpd3qeOM50Aw" type="github">
  <diagram name="Halaman-1" id="_ZZJXHgzUuO-70qeMx0G">
    <mxGraphModel>
      <root>
        <mxCell id="0" />
        <mxCell id="1" parent="0" />
      </root>
    </mxGraphModel>
  </diagram>
</mxfile>
